<?xml version="1.0" encoding="UTF-8" standalone="no"?><!DOCTYPE svg PUBLIC "-//W3C//DTD SVG 1.1//EN" "http://www.w3.org/Graphics/SVG/1.1/DTD/svg11.dtd"><svg width="100%" height="100%" viewBox="0 0 889 256" version="1.1" xmlns="http://www.w3.org/2000/svg" xmlns:xlink="http://www.w3.org/1999/xlink" xml:space="preserve" xmlns:serif="http://www.serif.com/" style="fill-rule:evenodd;clip-rule:evenodd;stroke-linejoin:round;stroke-miterlimit:1.41421;"><g id="content"><path d="M117.981,122.575l-0.001,-14.411l48.248,0c0.492,2.54 0.779,5.562 0.779,8.835c0,10.808 -2.957,24.189 -12.478,33.71c-9.266,9.651 -21.102,14.797 -36.799,14.797c-29.078,0 -53.524,-23.674 -53.524,-52.753c0,-29.077 24.446,-52.753 53.524,-52.753c16.083,0 27.534,6.305 36.154,14.54l-10.164,10.164c-6.177,-5.789 -14.54,-10.293 -25.99,-10.293c-21.23,0 -37.828,17.112 -37.828,38.342c0,21.23 16.598,38.343 37.828,38.343c13.768,0 21.615,-5.533 26.633,-10.551c4.089,-4.088 6.781,-9.952 7.827,-17.97l-34.209,0Z" style="fill:#4285f4;fill-rule:nonzero;"/><path d="M225.604,131.539c0,-12.224 -8.877,-20.587 -19.17,-20.587c-10.294,0 -19.172,8.363 -19.172,20.587c0,12.094 8.878,20.586 19.172,20.586c10.293,0 19.17,-8.492 19.17,-20.586m14.926,0c0,19.558 -15.312,33.967 -34.096,33.967c-18.786,0 -34.097,-14.409 -34.097,-33.967c0,-19.686 15.311,-33.968 34.097,-33.968c18.784,0 34.096,14.282 34.096,33.968" style="fill:#e94235;fill-rule:nonzero;"/><path d="M299.986,131.539c0,-12.224 -8.878,-20.587 -19.171,-20.587c-10.294,0 -19.171,8.363 -19.171,20.587c0,12.094 8.877,20.586 19.171,20.586c10.293,0 19.171,-8.492 19.171,-20.586m14.925,0c0,19.558 -15.311,33.967 -34.096,33.967c-18.785,0 -34.097,-14.409 -34.097,-33.967c0,-19.686 15.312,-33.968 34.097,-33.968c18.785,0 34.096,14.282 34.096,33.968" style="fill:#fabb05;fill-rule:nonzero;"/><path d="M373.082,131.668c0,-11.967 -7.978,-20.716 -18.143,-20.716c-10.294,0 -18.914,8.749 -18.914,20.716c0,11.837 8.62,20.457 18.914,20.457c10.165,0 18.143,-8.62 18.143,-20.457m13.124,-32.039l0,60.988c0,25.09 -14.797,35.384 -32.296,35.384c-16.469,-0.001 -26.376,-11.067 -30.107,-20.073l12.995,-5.405c2.315,5.534 7.976,12.095 17.112,12.095c11.194,0 18.142,-6.948 18.142,-19.942l0,-4.889l-0.514,0c-3.346,4.117 -9.779,7.719 -17.885,7.719c-16.985,0 -32.552,-14.796 -32.552,-33.838c0,-19.172 15.567,-34.097 32.552,-34.097c8.106,0 14.539,3.602 17.885,7.592l0.514,0l0,-5.534l14.154,0Z" style="fill:#4285f4;fill-rule:nonzero;"/><rect x="396.559" y="63.937" width="14.926" height="99.51" style="fill:#34a853;"/><path d="M433.479,130.509l30.365,-12.609c-1.673,-4.246 -6.69,-7.205 -12.608,-7.205c-7.591,0 -18.143,6.69 -17.757,19.814m35.642,12.223l11.579,7.72c-3.732,5.533 -12.738,15.054 -28.307,15.054c-19.3,0 -33.709,-14.925 -33.709,-33.967c0,-20.201 14.538,-33.968 32.036,-33.968c17.627,0 26.248,14.025 29.079,21.615l1.544,3.86l-45.419,18.786c3.474,6.819 8.878,10.293 16.469,10.293c7.591,0 12.866,-3.731 16.728,-9.393" style="fill:#e94235;fill-rule:nonzero;"/><path d="M559.572,165.506c-13.555,0 -24.92,-4.588 -34.098,-13.768c-9.178,-9.176 -13.767,-20.629 -13.767,-34.355c0,-13.721 4.589,-25.174 13.767,-34.352c9.178,-9.178 20.543,-13.768 34.098,-13.768c13.895,0 25.173,5.017 33.839,15.054l-8.235,7.977c-6.262,-7.804 -14.796,-11.707 -25.604,-11.707c-10.036,0 -18.509,3.388 -25.412,10.165c-6.906,6.775 -10.359,15.655 -10.359,26.631c0,10.983 3.453,19.86 10.359,26.636c6.903,6.777 15.376,10.166 25.412,10.166c11.065,0 20.499,-4.461 28.306,-13.383l8.234,8.235c-4.203,5.063 -9.478,9.072 -15.826,12.031c-6.349,2.959 -13.252,4.438 -20.714,4.438" style="fill:#5f6368;fill-rule:nonzero;"/><rect x="606.661" y="71.322" width="11.838" height="92.126" style="fill:#5f6368;"/><path d="M646.613,148.458c4.073,4.16 8.898,6.239 14.476,6.239c5.574,0 10.399,-2.079 14.474,-6.239c4.073,-4.16 6.112,-9.671 6.112,-16.534c0,-6.862 -2.039,-12.373 -6.112,-16.535c-4.075,-4.158 -8.9,-6.239 -14.474,-6.239c-5.578,0 -10.403,2.081 -14.476,6.239c-4.075,4.162 -6.111,9.673 -6.111,16.535c0,6.863 2.036,12.374 6.111,16.534m-8.813,-40.529c6.089,-6.391 13.851,-9.588 23.289,-9.588c9.434,0 17.196,3.197 23.288,9.588c6.09,6.39 9.135,14.389 9.135,23.995c0,9.608 -3.045,17.606 -9.135,23.996c-6.092,6.391 -13.854,9.586 -23.288,9.586c-9.438,0 -17.2,-3.195 -23.289,-9.586c-6.091,-6.39 -9.135,-14.388 -9.135,-23.996c0,-9.606 3.044,-17.605 9.135,-23.995" style="fill:#5f6368;fill-rule:nonzero;"/><path d="M759.005,163.448l-11.323,0l0,-8.75l-0.515,0c-1.802,3.003 -4.548,5.555 -8.234,7.656c-3.689,2.101 -7.592,3.153 -11.708,3.153c-7.894,0 -13.876,-2.4 -17.949,-7.206c-4.076,-4.802 -6.113,-11.237 -6.113,-19.299l0,-38.601l11.838,0l0,36.672c0,11.751 5.19,17.625 15.568,17.625c4.89,0 8.878,-1.97 11.967,-5.918c3.087,-3.945 4.631,-8.492 4.631,-13.637l0,-34.742l11.838,0l0,63.047Z" style="fill:#5f6368;fill-rule:nonzero;"/><path d="M801.079,154.698c5.575,0 10.313,-2.059 14.217,-6.177c3.903,-4.115 5.854,-9.648 5.854,-16.596c0,-6.947 -1.951,-12.482 -5.854,-16.6c-3.904,-4.116 -8.642,-6.174 -14.217,-6.174c-5.49,0 -10.21,2.081 -14.153,6.239c-3.947,4.162 -5.919,9.672 -5.919,16.535c0,6.863 1.972,12.374 5.919,16.534c3.943,4.16 8.663,6.239 14.153,6.239m-1.931,10.809c-8.149,0 -15.182,-3.216 -21.101,-9.651c-5.918,-6.432 -8.877,-14.409 -8.877,-23.931c0,-9.523 2.959,-17.5 8.877,-23.931c5.919,-6.435 12.952,-9.652 21.101,-9.652c4.803,0 9.114,1.029 12.932,3.088c3.815,2.059 6.668,4.632 8.556,7.721l0.514,0l-0.514,-8.75l0,-29.079l11.838,0l0,92.126l-11.324,0l0,-8.75l-0.514,0c-1.888,3.088 -4.741,5.662 -8.556,7.721c-3.818,2.058 -8.129,3.088 -12.932,3.088" style="fill:#5f6368;fill-rule:nonzero;"/></g></svg>