<?xml version="1.0" encoding="UTF-8" standalone="no"?><!DOCTYPE svg PUBLIC "-//W3C//DTD SVG 1.1//EN" "http://www.w3.org/Graphics/SVG/1.1/DTD/svg11.dtd"><svg width="100%" height="100%" viewBox="0 0 360 152" version="1.1" xmlns="http://www.w3.org/2000/svg" xmlns:xlink="http://www.w3.org/1999/xlink" xml:space="preserve" xmlns:serif="http://www.serif.com/" style="fill-rule:evenodd;clip-rule:evenodd;stroke-linejoin:round;stroke-miterlimit:1.41421;"><g><path d="M104,108.8c0,1.764 -1.435,3.2 -3.2,3.2l-57.6,0c-1.765,0 -3.2,-1.436 -3.2,-3.2l0,-65.6c0,-1.764 1.435,-3.2 3.2,-3.2l57.6,0c1.765,0 3.2,1.436 3.2,3.2l0,65.6Zm-3.2,-72.8l-57.6,0c-3.977,0 -7.2,3.224 -7.2,7.2l0,65.6c0,3.976 3.223,7.2 7.2,7.2l57.6,0c3.976,0 7.2,-3.224 7.2,-7.2l0,-65.6c0,-3.976 -3.224,-7.2 -7.2,-7.2Z" style="fill:#482d8d;fill-rule:nonzero;"/><path d="M54,104l9,-8l-9,-8l0,16Z" style="fill:#482d8d;fill-rule:nonzero;"/><path d="M86.517,71.576c-1.613,-1.631 -4.573,-3.576 -9.517,-3.576c-5.424,0 -11.007,1.411 -15,2.711l0,-22.711l-8,0l0,34.693l5.65,-2.56c0.091,-0.042 9.215,-4.133 17.35,-4.133c4.061,0 4.96,2.243 5,4.11l0,23.89l8,0l-0.001,-24c0.006,-0.511 -0.042,-4.945 -3.482,-8.424Z" style="fill:#482d8d;fill-rule:nonzero;"/><path d="M76,61l8,0c3.617,-4.1 5.459,-8.456 6,-13l-8,0c-0.882,4.535 -2.857,8.875 -6,13Z" style="fill:#482d8d;fill-rule:nonzero;"/><path d="M126,62.048l7.975,0l0,10.964l9.809,0l0,-10.964l7.976,0l0,29.507l-7.976,0l0,-11.923l-9.809,0l0,11.923l-7.975,0l0,-29.507Z" style="fill:#482d8d;fill-rule:nonzero;"/><path d="M162.032,62.048l21.054,0l0,6.619l-13.079,0l0,4.786l9.331,0l0,6.22l-9.331,0l0,5.462l13.758,0l0,6.42l-21.733,0l0,-29.507Z" style="fill:#482d8d;fill-rule:nonzero;"/><path d="M203.768,75.246c3.27,0 4.705,-0.917 4.705,-3.389c0,-2.472 -1.435,-3.35 -4.705,-3.35l-3.429,0l0,6.739l3.429,0Zm-11.244,-13.198l11.524,0c7.576,0 12.202,2.513 12.202,9.609c0,4.625 -1.955,7.299 -5.822,8.612l6.26,11.286l-8.453,0l-5.703,-10.247l-2.193,0l0,10.247l-7.815,0l0,-29.507Z" style="fill:#482d8d;fill-rule:nonzero;"/><path d="M245.583,76.8c0,-5.422 -2.352,-8.731 -6.499,-8.731c-4.187,0 -6.539,3.309 -6.539,8.731c0,5.425 2.352,8.934 6.539,8.934c4.147,0 6.499,-3.509 6.499,-8.934Zm-21.013,0c0,-10.804 7.376,-15.312 14.514,-15.312c7.098,0 14.475,4.508 14.475,15.312c0,10.807 -7.377,15.312 -14.475,15.312c-7.138,0 -14.514,-4.505 -14.514,-15.312Z" style="fill:#482d8d;fill-rule:nonzero;"/><path d="M262.437,62.048l7.974,0l0,10.687l8.136,-10.687l9.25,0l-9.929,11.643l10.806,17.864l-9.012,0l-6.977,-11.804l-2.274,2.633l0,9.171l-7.974,0l0,-29.507Z" style="fill:#482d8d;fill-rule:nonzero;"/><path d="M296.037,79.712l0,-17.664l7.975,0l0,17.625c0,4.066 1.316,5.9 4.507,5.9c3.189,0 4.465,-1.834 4.465,-5.9l0,-17.625l7.816,0l0,17.664c0,7.817 -3.748,12.281 -12.361,12.281c-8.614,0 -12.402,-4.464 -12.402,-12.281Z" style="fill:#482d8d;fill-rule:nonzero;"/></g></svg>